<svg xmlns="http://www.w3.org/2000/svg">
    <defs>
        <!-- like-icon -->
        <symbol id="like-icon" viewBox="0 0 21 18">
            <path d="M18.8428 1.54304C16.7022 -0.281174 13.5186 0.0469511 11.5538 2.07429L10.7842 2.86726L10.0147 2.07429C8.05376 0.0469511 4.86626 -0.281174 2.72564 1.54304C0.272513 3.63679 0.143607 7.39461 2.33892 9.66414L9.89751 17.4688C10.3858 17.9727 11.1788 17.9727 11.667 17.4688L19.2256 9.66414C21.4249 7.39461 21.296 3.63679 18.8428 1.54304Z" />
        </symbol>


        <!-- download-icon -->
        <symbol id="download-icon" viewBox="0 0 20 20">
            <path d="M8.4375 0H11.5625C12.082 0 12.5 0.417969 12.5 0.9375V7.5H15.9258C16.6211 7.5 16.9688 8.33984 16.4766 8.83203L10.5352 14.7773C10.2422 15.0703 9.76172 15.0703 9.46875 14.7773L3.51953 8.83203C3.02734 8.33984 3.375 7.5 4.07031 7.5H7.5V0.9375C7.5 0.417969 7.91797 0 8.4375 0ZM20 14.6875V19.0625C20 19.582 19.582 20 19.0625 20H0.9375C0.417969 20 0 19.582 0 19.0625V14.6875C0 14.168 0.417969 13.75 0.9375 13.75H6.66797L8.58203 15.6641C9.36719 16.4492 10.6328 16.4492 11.418 15.6641L13.332 13.75H19.0625C19.582 13.75 20 14.168 20 14.6875ZM15.1562 18.125C15.1562 17.6953 14.8047 17.3438 14.375 17.3438C13.9453 17.3438 13.5938 17.6953 13.5938 18.125C13.5938 18.5547 13.9453 18.9062 14.375 18.9062C14.8047 18.9062 15.1562 18.5547 15.1562 18.125ZM17.6562 18.125C17.6562 17.6953 17.3047 17.3438 16.875 17.3438C16.4453 17.3438 16.0938 17.6953 16.0938 18.125C16.0938 18.5547 16.4453 18.9062 16.875 18.9062C17.3047 18.9062 17.6562 18.5547 17.6562 18.125Z" fill="#4F4F4F"/>
        </symbol>

        <!-- cursor-icon -->
        <symbol id="cursor-icon" viewBox="0 0 19 25">
            <path d="M6.74863 0C7.9022 0 8.88857 1.0083 8.88857 2.1875V7.06304C9.721 6.26519 11.3186 6.16724 12.3526 7.37061C13.4673 6.67295 14.9414 7.26577 15.3954 8.17383C17.7948 7.73564 18.875 9.24541 18.875 11.7188C18.875 11.8528 18.8651 12.367 18.8655 12.5C18.8737 15.5259 17.3486 16.2546 16.9946 18.5416C16.9064 19.1115 16.414 19.5312 15.8372 19.5312H7.46196L7.46191 19.5312C6.56514 19.5306 5.70952 19.0132 5.32105 18.1413C4.68657 16.7309 2.92661 13.4825 1.54551 12.8906C0.65708 12.5099 0.125391 11.8465 0.125 10.9375C0.124317 9.2665 1.83877 8.11758 3.39199 8.78325C3.80015 8.9582 4.20596 9.18911 4.60869 9.47432V2.1875C4.60869 1.04248 5.61177 0 6.74863 0ZM6.76562 20.3125H16.1406C16.7878 20.3125 17.3125 20.8372 17.3125 21.4844V23.8281C17.3125 24.4753 16.7878 25 16.1406 25H6.76562C6.11841 25 5.59375 24.4753 5.59375 23.8281V21.4844C5.59375 20.8372 6.11841 20.3125 6.76562 20.3125ZM14.9688 21.6797C14.4294 21.6797 13.9922 22.1169 13.9922 22.6562C13.9922 23.1956 14.4294 23.6328 14.9688 23.6328C15.5081 23.6328 15.9453 23.1956 15.9453 22.6562C15.9453 22.1169 15.5081 21.6797 14.9688 21.6797Z" fill="black"/>
        </symbol>
    </defs>
</svg>


