<svg xmlns="http://www.w3.org/2000/svg">
    <defs>
        <!-- double-arrow-icon -->
        <svg id="double-arrow-icon" width="12" height="14" viewBox="0 0 12 14">
            <path d="M6 0.25L0.75 5.5H11.25L6 0.25ZM6 13.75L0.75 8.5H11.25L6 13.75Z" />
        </svg>

        <!-- camera-icon -->
        <symbol id="camera-icon" width="14" height="12" viewBox="0 0 14 12">
            <path d="M3.78001 1.33333L5.00001 0H9.00001L10.22 1.33333H12.3333C13.0667 1.33333 13.6667 1.93333 13.6667 2.66667V10.6667C13.6667 11.4 13.0667 12 12.3333 12H1.66668C0.933344 12 0.333344 11.4 0.333344 10.6667V2.66667C0.333344 1.93333 0.933344 1.33333 1.66668 1.33333H3.78001ZM3.66668 6.66667C3.66668 8.50667 5.16001 10 7.00001 10C8.84001 10 10.3333 8.50667 10.3333 6.66667C10.3333 4.82667 8.84001 3.33333 7.00001 3.33333C5.16001 3.33333 3.66668 4.82667 3.66668 6.66667ZM7.00001 8.8C8.17822 8.8 9.13334 7.84487 9.13334 6.66667C9.13334 5.48846 8.17822 4.53333 7.00001 4.53333C5.8218 4.53333 4.86668 5.48846 4.86668 6.66667C4.86668 7.84487 5.8218 8.8 7.00001 8.8Z" />
        </symbol>

        <!-- trash-can-icon -->
        <symbol id="trash-can-icon" width="10" height="12" viewBox="0 0 10 12">
            <path d="M1.00001 10.6667C1.00001 11.4 1.60001 12 2.33334 12H7.66668C8.40001 12 9.00001 11.4 9.00001 10.6667V2.66667H1.00001V10.6667ZM9.66668 0.666667H7.33334L6.66668 0H3.33334L2.66668 0.666667H0.333344V2H9.66668V0.666667Z" />
        </symbol>
    </defs>
</svg>


