<svg xmlns="http://www.w3.org/2000/svg">
    <defs>
        <!-- logo-icon -->
        <symbol id="logo-icon" viewBox="0 0 170 60" fill="none">
            <g clip-path="url(#clip0_105_4)">
                <path d="M35.5886 9.244L31.0194 14.4242L23.0059 7.42084L27.5751 2.24067L35.5886 9.244Z" fill="url(#paint0_linear_105_4)" />
                <path d="M46.98 33.6818L60.2706 45.2962L50.9704 55.8389L37.6797 44.2243L35.3611 42.1984L44.6615 31.6557L46.98 33.6818Z" fill="#2E8FE7" />
                <path d="M35.2661 46.9603L38.1923 49.5174L31.1134 57.5419L25.8685 52.9587L27.4151 51.2057L32.9477 44.9341L35.2661 46.9603Z" fill="#2D3DCC" />
                <path d="M49.8909 25.7277L51.8765 23.4769L57.1211 28.0602L52.5512 33.2405L49.6251 30.6835L52.2094 27.7538L49.8909 25.7277ZM49.6251 30.6835L47.3066 28.6573L49.8909 25.7277L52.2094 27.7538L49.6251 30.6835Z" fill="#1578D3" />
                <path d="M11.1281 36.9727L9.58183 38.7257L1.56783 31.7225L8.64674 23.698L14.2641 28.607L16.6608 30.7014L11.1281 36.9727Z" fill="#2FD6FF" />
                <path d="M28.3746 17.4228L19.0742 27.9655L16.6777 25.8711L3.51151 14.3655L12.8119 3.82279L25.9781 15.3284L28.3746 17.4228Z" fill="#1578D3" />
                <path d="M33.6041 11.495L31.0197 14.4244L28.6231 12.3302L23.0057 7.4212L27.5756 2.24086L35.5896 9.24406L33.6041 11.495Z" fill="#94EAFF" />
                <path d="M17.1557 59.8483L4.01472 48.2777L45.1517 1.54725L58.6879 12.7712L17.1557 59.8483Z" fill="#18B5DC" />
                <path d="M74.96 20.6H76.4V44H74.96V20.6ZM70.76 20.6H72.2V44H70.76V20.6ZM79.6421 20.6H97.6721V22.04H79.6421V20.6ZM89.9921 23.72H97.6721V25.16H91.4321V44H89.9921V23.72ZM85.8521 25.16H79.6421V23.72H87.2921V44H85.8521V25.16ZM104.896 20.6H106.336V39.11H116.266V40.55H104.896V20.6ZM100.786 20.6H102.226V42.56H116.266V44H100.786V20.6ZM124.12 20.6H125.56V44H124.12V20.6ZM119.92 20.6H121.36V44H119.92V20.6ZM130.962 20.6H146.592V22.04H132.402V44H130.962V20.6ZM135.042 23.72H146.592V25.16H136.482V30.62H145.302V32.06H135.042V23.72ZM135.042 33.62H145.302V35.06H136.482V44H135.042V33.62ZM150.298 20.6H166.498V22.04H151.738V42.56H167.098V44H150.298V20.6ZM154.318 23.72H166.498V25.16H155.758V29.78H164.968V31.22H154.318V23.72ZM154.318 32.81H164.968V34.25H155.758V39.44H167.098V40.88H154.318V32.81Z" fill="#282528" />
            </g>
            <defs>
                <linearGradient id="paint0_linear_105_4" x1="-25.5068" y1="1.56486" x2="63.5809" y2="34.9301" gradientUnits="userSpaceOnUse">
                    <stop stop-color="#C06FBB" />
                    <stop offset="1" stop-color="#6E4D9B"/>
                </linearGradient>
                <clipPath id="clip0_105_4">
                    <rect width="170" height="60" fill="white" />
                </clipPath>
            </defs>
        </symbol>

        <symbol id="twitter-icon" viewBox="0 0 20 18">
            <path d="M17.9441 4.92638C17.9568 5.10403 17.9568 5.28173 17.9568 5.45938C17.9568 10.8781 13.8325 17.1218 6.29441 17.1218C3.97207 17.1218 1.81473 16.4492 0 15.2817C0.329961 15.3198 0.647187 15.3325 0.989844 15.3325C2.90605 15.3325 4.67004 14.6853 6.07867 13.5812C4.27664 13.5431 2.76648 12.3629 2.24617 10.7386C2.5 10.7766 2.75379 10.802 3.02031 10.802C3.38832 10.802 3.75637 10.7512 4.09898 10.6624C2.22082 10.2817 0.812148 8.63196 0.812148 6.63958V6.58884C1.35781 6.89341 1.99238 7.08376 2.66492 7.10911C1.56086 6.37306 0.837539 5.11673 0.837539 3.6954C0.837539 2.93399 1.04055 2.23603 1.3959 1.62688C3.41367 4.11419 6.44668 5.73853 9.84766 5.91622C9.78422 5.61165 9.74613 5.29442 9.74613 4.97716C9.74613 2.71825 11.5736 0.878174 13.8451 0.878174C15.0253 0.878174 16.0913 1.3731 16.84 2.17259C17.7664 1.99493 18.6547 1.65228 19.4416 1.18274C19.137 2.13454 18.4898 2.93403 17.6395 3.44161C18.4644 3.35282 19.2639 3.12435 19.9999 2.80712C19.4416 3.61927 18.7436 4.34259 17.9441 4.92638Z" />
        </symbol>

        <!-- facebook-icon -->
        <symbol id="facebook-icon" viewBox="0 0 12 20">
            <path d="M10.6539 11.25L11.2094 7.63047H7.73635V5.28164C7.73635 4.29141 8.22151 3.32617 9.77698 3.32617H11.3559V0.244531C11.3559 0.244531 9.92307 0 8.55315 0C5.69299 0 3.82346 1.73359 3.82346 4.87187V7.63047H0.644165V11.25H3.82346V20H7.73635V11.25H10.6539Z" />
        </symbol>

        <!-- instagram-icon -->
        <symbol id="instagram-icon" viewBox="0 0 20 20">
            <path d="M10.0045 4.87225C7.16613 4.87225 4.87672 7.16166 4.87672 10C4.87672 12.8383 7.16613 15.1277 10.0045 15.1277C12.8428 15.1277 15.1322 12.8383 15.1322 10C15.1322 7.16166 12.8428 4.87225 10.0045 4.87225ZM10.0045 13.3337C8.17026 13.3337 6.67076 11.8387 6.67076 10C6.67076 8.16133 8.16579 6.6663 10.0045 6.6663C11.8431 6.6663 13.3382 8.16133 13.3382 10C13.3382 11.8387 11.8387 13.3337 10.0045 13.3337ZM16.538 4.6625C16.538 5.32746 16.0025 5.85853 15.342 5.85853C14.677 5.85853 14.1459 5.32299 14.1459 4.6625C14.1459 4.00201 14.6815 3.46647 15.342 3.46647C16.0025 3.46647 16.538 4.00201 16.538 4.6625ZM19.9342 5.87638C19.8583 4.27424 19.4924 2.85507 18.3186 1.68582C17.1494 0.516568 15.7302 0.150619 14.1281 0.070289C12.4769 -0.0234297 7.52761 -0.0234297 5.87638 0.070289C4.2787 0.146156 2.85953 0.512105 1.68582 1.68136C0.512105 2.85061 0.150619 4.26978 0.070289 5.87192C-0.0234297 7.52315 -0.0234297 12.4724 0.070289 14.1236C0.146156 15.7258 0.512105 17.1449 1.68582 18.3142C2.85953 19.4834 4.27424 19.8494 5.87638 19.9297C7.52761 20.0234 12.4769 20.0234 14.1281 19.9297C15.7302 19.8538 17.1494 19.4879 18.3186 18.3142C19.4879 17.1449 19.8538 15.7258 19.9342 14.1236C20.0279 12.4724 20.0279 7.52761 19.9342 5.87638ZM17.801 15.8953C17.4529 16.7701 16.779 17.4439 15.8998 17.7965C14.5833 18.3186 11.4593 18.1981 10.0045 18.1981C8.54959 18.1981 5.42118 18.3142 4.10912 17.7965C3.23441 17.4484 2.56053 16.7745 2.20797 15.8953C1.68582 14.5788 1.80632 11.4549 1.80632 10C1.80632 8.54513 1.69028 5.41671 2.20797 4.10465C2.55606 3.22995 3.22995 2.55606 4.10912 2.2035C5.42564 1.68136 8.54959 1.80185 10.0045 1.80185C11.4593 1.80185 14.5878 1.68582 15.8998 2.2035C16.7745 2.5516 17.4484 3.22548 17.801 4.10465C18.3231 5.42118 18.2026 8.54513 18.2026 10C18.2026 11.4549 18.3231 14.5833 17.801 15.8953Z" />
        </symbol>
        
        <!-- linkedin-icon -->
        <symbol id="linkedin-icon" viewBox="0 0 20 20">
            <path d="M4.47664 20H0.33012V6.64702H4.47664V20ZM2.40115 4.82555C1.07523 4.82555 -0.000244141 3.72732 -0.000244141 2.40139C-0.000244131 1.7645 0.252759 1.1537 0.703108 0.703352C1.15346 0.253003 1.76426 0 2.40115 0C3.03804 0 3.64884 0.253003 4.09919 0.703352C4.54954 1.1537 4.80254 1.7645 4.80254 2.40139C4.80254 3.72732 3.72662 4.82555 2.40115 4.82555ZM19.9957 20H15.8581V13.4999C15.8581 11.9507 15.8269 9.96406 13.7023 9.96406C11.5464 9.96406 11.2161 11.6471 11.2161 13.3882V20H7.07402V6.64702H11.0509V8.46849H11.1089C11.6625 7.41936 13.0148 6.31219 15.0322 6.31219C19.2288 6.31219 20.0002 9.07565 20.0002 12.665V20H19.9957Z" />
        </symbol>

        <!-- telegram-icon -->
        <symbol id="telegram-icon" viewBox="0 0 20 16">
            <path d="M19.5497 1.45659L16.6523 15.0342C16.4337 15.9924 15.8637 16.2309 15.0536 15.7795L10.6389 12.5469L8.50873 14.5827C8.27299 14.817 8.07583 15.0129 7.6215 15.0129L7.93868 10.5452L16.1208 3.19851C16.4766 2.88334 16.0437 2.70873 15.5679 3.02389L5.45274 9.35271L1.09807 7.99836C0.150839 7.70449 0.133695 7.05713 1.29523 6.60568L18.3282 0.0852048C19.1168 -0.208664 19.8069 0.259822 19.5497 1.45659Z" />
        </symbol>
    </defs>
</svg>