<svg xmlns="http://www.w3.org/2000/svg">
    <defs>
    <!-- star-icon -->
        <symbol id="star-icon" viewBox="0 0 26 26" xmlns="http://www.w3.org/2000/svg">
            <path d="M7.41471 25.6211C6.78429 26.1123 6.14017 26.1259 5.48235 25.662C4.82452 25.1982 4.60525 24.5843 4.82452 23.8203L7.16802 16.2485L1.20649 12.0329C0.54867 11.5691 0.350226 10.9551 0.611163 10.1911C0.871003 9.42715 1.39836 9.04516 2.19323 9.04516H9.55264L11.9372 1.18692C12.0743 0.804923 12.287 0.511331 12.5753 0.306144C12.8626 0.102048 13.1707 0 13.4996 0C13.8285 0 14.1366 0.102048 14.4238 0.306144C14.7122 0.511331 14.9249 0.804923 15.0619 1.18692L17.4465 9.04516H24.8059C25.6008 9.04516 26.1287 9.42715 26.3896 10.1911C26.6495 10.9551 26.4505 11.5691 25.7927 12.0329L19.8311 16.2485L22.1746 23.8203C22.3939 24.5843 22.1746 25.1982 21.5168 25.662C20.859 26.1259 20.2149 26.1123 19.5844 25.6211L13.4996 20.9962L7.41471 25.6211Z"
            />
        </symbol>

        <!-- linkedin-icon -->
        <symbol id="linkedin-icon" viewBox="0 0 42 42" xmlns="http://www.w3.org/2000/svg">
            <path d="M35.1406 1H6.85938C3.62848 1 1 3.62848 1 6.85938V35.1406C1 38.3715 3.62848 41 6.85938 41H35.1406C38.3715 41 41 38.3715 41 35.1406V6.85938C41 3.62848 38.3715 1 35.1406 1ZM38.6562 35.1406C38.6562 37.0791 37.0791 38.6562 35.1406 38.6562H6.85938C4.9209 38.6562 3.34375 37.0791 3.34375 35.1406V6.85938C3.34375 4.9209 4.9209 3.34375 6.85938 3.34375H35.1406C37.0791 3.34375 38.6562 4.9209 38.6562 6.85938V35.1406Z" />
            <mask id="path-2-inside-1_10122_120">
                <path d="M32.0202 29.7139C30.5886 29.7139 29.1671 29.7139 27.7236 29.7139C27.7236 29.6454 27.7236 29.5814 27.7236 29.5175C27.7236 27.2089 27.7233 24.9004 27.7239 22.5922C27.7239 22.1009 27.6872 21.6156 27.5628 21.1364C27.0492 19.1601 24.831 19.2756 23.9486 20.2122C23.5051 20.6829 23.2154 21.2149 23.2031 21.8723C23.2004 22.0288 23.1912 22.1855 23.1912 22.3419C23.1903 24.731 23.1906 27.1204 23.1906 29.5096C23.1906 29.5741 23.1906 29.6387 23.1906 29.7127C21.7532 29.7127 20.332 29.7127 18.9017 29.7127C18.9017 25.3069 18.9017 20.9057 18.9017 16.4963C20.3296 16.4963 21.7507 16.4963 23.1884 16.4963C23.1884 17.0932 23.1884 17.6812 23.1884 18.2692C23.1998 18.2741 23.2111 18.2793 23.2227 18.2841C23.2534 18.2429 23.2846 18.2023 23.3149 18.1607C23.7447 17.5685 24.2384 17.0435 24.8944 16.6885C25.6271 16.2917 26.4185 16.1587 27.2421 16.1823C28.134 16.2081 28.9803 16.4072 29.7429 16.8834C30.7206 17.4939 31.3163 18.3872 31.6652 19.4587C31.9372 20.2937 32.0263 21.1552 32.0272 22.0275C32.0294 24.5379 32.0281 27.0486 32.0278 29.559C32.0278 29.6081 32.0232 29.6572 32.0202 29.7139Z"
                />
            </mask>
            <path d="M32.0202 29.7139C30.5886 29.7139 29.1671 29.7139 27.7236 29.7139C27.7236 29.6454 27.7236 29.5814 27.7236 29.5175C27.7236 27.2089 27.7233 24.9004 27.7239 22.5922C27.7239 22.1009 27.6872 21.6156 27.5628 21.1364C27.0492 19.1601 24.831 19.2756 23.9486 20.2122C23.5051 20.6829 23.2154 21.2149 23.2031 21.8723C23.2004 22.0288 23.1912 22.1855 23.1912 22.3419C23.1903 24.731 23.1906 27.1204 23.1906 29.5096C23.1906 29.5741 23.1906 29.6387 23.1906 29.7127C21.7532 29.7127 20.332 29.7127 18.9017 29.7127C18.9017 25.3069 18.9017 20.9057 18.9017 16.4963C20.3296 16.4963 21.7507 16.4963 23.1884 16.4963C23.1884 17.0932 23.1884 17.6812 23.1884 18.2692C23.1998 18.2741 23.2111 18.2793 23.2227 18.2841C23.2534 18.2429 23.2846 18.2023 23.3149 18.1607C23.7447 17.5685 24.2384 17.0435 24.8944 16.6885C25.6271 16.2917 26.4185 16.1587 27.2421 16.1823C28.134 16.2081 28.9803 16.4072 29.7429 16.8834C30.7206 17.4939 31.3163 18.3872 31.6652 19.4587C31.9372 20.2937 32.0263 21.1552 32.0272 22.0275C32.0294 24.5379 32.0281 27.0486 32.0278 29.559C32.0278 29.6081 32.0232 29.6572 32.0202 29.7139Z"
            />
            <path d="M16.2658 29.7054H16.2644H16.2561H16.2477H16.2394H16.231H16.2226H16.2143H16.2059H16.1976H16.1892H16.1809H16.1725H16.1641H16.1558H16.1474H16.1391H16.1307H16.1224H16.114H16.1057H16.0973H16.089H16.0806H16.0723H16.0639H16.0556H16.0472H16.0389H16.0305H16.0222H16.0138H16.0055H15.9971H15.9888H15.9804H15.9721H15.9637H15.9554H15.947H15.9387H15.9303H15.922H15.9136H15.9053H15.8969H15.8886H15.8802H15.8719H15.8635H15.8552H15.8469H15.8385H15.8302H15.8218H15.8135H15.8051H15.7968H15.7885H15.7801H15.7718H15.7634H15.7551H15.7467H15.7384H15.7301H15.7217H15.7134H15.705H15.6967H15.6884H15.68H15.6717H15.6633H15.655H15.6467H15.6383H15.63H15.6216H15.6133H15.605H15.5966H15.5883H15.58H15.5716H15.5633H15.5549H15.5466H15.5383H15.5299H15.5216H15.5133H15.5049H15.4966H15.4883H15.4799H15.4716H15.4633H15.4549H15.4466H15.4383H15.4299H15.4216H15.4133H15.4049H15.3966H15.3883H15.3799H15.3716H15.3633H15.3549H15.3466H15.3383H15.3299H15.3216H15.3133H15.3049H15.2966H15.2883H15.2799H15.2716H15.2633H15.255H15.2466H15.2383H15.23H15.2216H15.2133H15.205H15.1967H15.1883H15.18H15.1717H15.1633H15.155H15.1467H15.1384H15.13H15.1217H15.1134H15.105H15.0967H15.0884H15.0801H15.0717H15.0634H15.0551H15.0468H15.0384H15.0301H15.0218H15.0135H15.0051H14.9968H14.9885H14.9802H14.9718H14.9635H14.9552H14.9469H14.9385H14.9302H14.9219H14.9136H14.9052H14.8969H14.8886H14.8803H14.8719H14.8636H14.8553H14.847H14.8387H14.8303H14.822H14.8137H14.8054H14.797H14.7887H14.7804H14.7721H14.7637H14.7554H14.7471H14.7388H14.7305H14.7221H14.7138H14.7055H14.6972H14.6889H14.6805H14.6722H14.6639H14.6556H14.6472H14.6389H14.6306H14.6223H14.614H14.6056H14.5973H14.589H14.5807H14.5724H14.564H14.5557H14.5474H14.5391H14.5308H14.5224H14.5141H14.5058H14.4975H14.4892H14.4808H14.4725H14.4642H14.4559H14.4476H14.4392H14.4309H14.4226H14.4143H14.406H14.3977H14.3893H14.381H14.3727H14.3644H14.3561H14.3477H14.3394H14.3311H14.3228H14.3145H14.3061H14.2978H14.2895H14.2812H14.2729H14.2645H14.2562H14.2479H14.2396H14.2313H14.223H14.2146H14.2063H14.198H14.1897H14.1814H14.173H14.1647H14.1564H14.1481H14.1398H14.1315H14.1231H14.1148H14.1065H14.0982H14.0899H14.0815H14.0732H14.0649H14.0566H14.0483H14.0399H14.0316H14.0233H14.015H14.0067H13.9984H13.99H13.9817H13.9734H13.9651H13.9568H13.9484H13.9401H13.9318H13.9235H13.9152H13.9068H13.8985H13.8902H13.8819H13.8736H13.8653H13.8569H13.8486H13.8403H13.832H13.8237H13.8153H13.807H13.7987H13.7904H13.7821H13.7737H13.7654H13.7571H13.7488H13.7405H13.7321H13.7238H13.7155H13.7072H13.6989H13.6905H13.6822H13.6739H13.6656H13.6573H13.6489H13.6406H13.6323H13.624H13.6157H13.6073H13.599H13.5907H13.5824H13.5741H13.5657H13.5574H13.5491H13.5408H13.5324H13.5241H13.5158H13.5075H13.4992H13.4908H13.4825H13.4742H13.4659H13.4575H13.4492H13.4409H13.4326H13.4243H13.4159H13.4076H13.3993H13.391H13.3826H13.3743H13.366H13.3577H13.3493H13.341H13.3327H13.3244H13.3161H13.3077H13.2994H13.2911H13.2828H13.2744H13.2661H13.2578H13.2495H13.2411H13.2328H13.2245H13.2162H13.2078H13.1995H13.1912H13.1828H13.1745H13.1662H13.1579H13.1495H13.1412H13.1329H13.1246H13.1162H13.1079H13.0996H13.0913H13.0829H13.0746H13.0663H13.0579H13.0496H13.0413H13.033H13.0246H13.0163H13.008H12.9996H12.9913H12.983H12.9746H12.9663H12.958H12.9497H12.9413H12.933H12.9247H12.9163H12.908H12.8997H12.8913H12.883H12.8747H12.8663H12.858H12.8497H12.8413H12.833H12.8247H12.8163H12.808H12.7997H12.7913H12.783H12.7747H12.7663H12.758H12.7497H12.7413H12.733H12.7247H12.7163H12.708H12.6997H12.6913H12.683H12.6746H12.6663H12.658H12.6496H12.6413H12.633H12.6246H12.6163H12.6079H12.5996H12.5913H12.5829H12.5746H12.5662H12.5579H12.5496H12.5412H12.5329H12.5245H12.5162H12.5079H12.4995H12.4912H12.4828H12.4745H12.4661H12.4578H12.4495H12.4411H12.4328H12.4244H12.4161H12.4077H12.3994H12.3911H12.3827H12.3744H12.366H12.3577H12.3493H12.341H12.3326H12.3243H12.3159H12.3076H12.2992H12.2909H12.2825H12.2742H12.2659H12.2575H12.2492H12.2408H12.2325H12.2241H12.2158H12.2074H12.1991H12.1907H12.1823H12.174H12.1656H12.1573H12.1489H12.1406H12.1322H12.1239H12.1155H12.1072H12.0988H12.0905H12.0821H12.0738H12.0654H12.057H12.0487H12.0403H12.032H12.0306V29.6949V29.669V29.6432V29.6174V29.5916V29.5657V29.5399V29.5141V29.4882V29.4624V29.4366V29.4108V29.3849V29.3591V29.3333V29.3074V29.2816V29.2558V29.23V29.2041V29.1783V29.1525V29.1266V29.1008V29.075V29.0492V29.0233V28.9975V28.9717V28.9458V28.92V28.8942V28.8684V28.8425V28.8167V28.7909V28.7651V28.7392V28.7134V28.6876V28.6617V28.6359V28.6101V28.5843V28.5584V28.5326V28.5068V28.481V28.4551V28.4293V28.4035V28.3776V28.3518V28.326V28.3002V28.2743V28.2485V28.2227V28.1969V28.171V28.1452V28.1194V28.0935V28.0677V28.0419V28.0161V27.9902V27.9644V27.9386V27.9128V27.8869V27.8611V27.8353V27.8095V27.7836V27.7578V27.732V27.7062V27.6803V27.6545V27.6287V27.6028V27.577V27.5512V27.5254V27.4995V27.4737V27.4479V27.4221V27.3962V27.3704V27.3446V27.3188V27.2929V27.2671V27.2413V27.2155V27.1896V27.1638V27.138V27.1121V27.0863V27.0605V27.0347V27.0088V26.983V26.9572V26.9314V26.9055V26.8797V26.8539V26.8281V26.8022V26.7764V26.7506V26.7248V26.6989V26.6731V26.6473V26.6214V26.5956V26.5698V26.544V26.5181V26.4923V26.4665V26.4407V26.4148V26.389V26.3632V26.3374V26.3115V26.2857V26.2599V26.2341V26.2082V26.1824V26.1566V26.1307V26.1049V26.0791V26.0533V26.0274V26.0016V25.9758V25.95V25.9241V25.8983V25.8725V25.8467V25.8208V25.795V25.7692V25.7434V25.7175V25.6917V25.6659V25.64V25.6142V25.5884V25.5626V25.5367V25.5109V25.4851V25.4593V25.4334V25.4076V25.3818V25.3559V25.3301V25.3043V25.2785V25.2526V25.2268V25.201V25.1752V25.1493V25.1235V25.0977V25.0718V25.046V25.0202V24.9944V24.9685V24.9427V24.9169V24.8911V24.8652V24.8394V24.8136V24.7877V24.7619V24.7361V24.7103V24.6844V24.6586V24.6328V24.607V24.5811V24.5553V24.5295V24.5036V24.4778V24.452V24.4262V24.4003V24.3745V24.3487V24.3228V24.297V24.2712V24.2454V24.2195V24.1937V24.1679V24.142V24.1162V24.0904V24.0646V24.0387V24.0129V23.9871V23.9612V23.9354V23.9096V23.8837V23.8579V23.8321V23.8063V23.7804V23.7546V23.7288V23.7029V23.6771V23.6513V23.6254V23.5996V23.5738V23.548V23.5221V23.4963V23.4705V23.4446V23.4188V23.393V23.3671V23.3413V23.3155V23.2897V23.2638V23.238V23.2122V23.1863V23.1605V23.1347V23.1088V23.083V23.0572V23.0313V23.0055V22.9797V22.9538V22.928V22.9022V22.8763V22.8505V22.8247V22.7988V22.773V22.7472V22.7214V22.6955V22.6697V22.6439V22.618V22.5922V22.5664V22.5405V22.5147V22.4889V22.463V22.4372V22.4114V22.3855V22.3597V22.3339V22.308V22.2822V22.2564V22.2305V22.2047V22.1788V22.153V22.1272V22.1013V22.0755V22.0497V22.0238V21.998V21.9722V21.9463V21.9205V21.8947V21.8688V21.843V21.8172V21.7913V21.7655V21.7396V21.7138V21.688V21.6621V21.6363V21.6105V21.5846V21.5588V21.533V21.5071V21.4813V21.4554V21.4296V21.4038V21.3779V21.3521V21.3263V21.3004V21.2746V21.2487V21.2229V21.1971V21.1712V21.1454V21.1196V21.0937V21.0679V21.042V21.0162V20.9904V20.9645V20.9387V20.9128V20.887V20.8612V20.8353V20.8095V20.7836V20.7578V20.732V20.7061V20.6803V20.6544V20.6286V20.6028V20.5769V20.5511V20.5252V20.4994V20.4736V20.4477V20.4219V20.396V20.3702V20.3443V20.3185V20.2927V20.2668V20.241V20.2151V20.1893V20.1634V20.1376V20.1118V20.0859V20.0601V20.0342V20.0084V19.9825V19.9567V19.9309V19.905V19.8792V19.8533V19.8275V19.8016V19.7758V19.7499V19.7241V19.6983V19.6724V19.6466V19.6207V19.5949V19.569V19.5432V19.5173V19.4915V19.4656V19.4398V19.4139V19.3881V19.3622V19.3364V19.3106V19.2847V19.2589V19.233V19.2072V19.1813V19.1555V19.1296V19.1038V19.0779V19.0521V19.0262V19.0004V18.9745V18.9487V18.9228V18.897V18.8711V18.8453V18.8194V18.7936V18.7677V18.7419V18.716V18.6902V18.6643V18.6385V18.6126V18.5868V18.5609V18.5351V18.5092V18.4834V18.4575V18.4316V18.4058V18.3799V18.3541V18.3282V18.3024V18.2765V18.2507V18.2248V18.199V18.1731V18.1473V18.1214V18.0955V18.0697V18.0438V18.018V17.9921V17.9663V17.9404V17.9146V17.8887V17.8628V17.837V17.8111V17.7853V17.7594V17.7336V17.7077V17.6818V17.656V17.6301V17.6043V17.5784V17.5526V17.5267V17.5008V17.475V17.4491V17.4233V17.3974V17.3715V17.3457V17.3198V17.294V17.2681V17.2422V17.2164V17.1905V17.1647V17.1388V17.1129V17.0871V17.0612V17.0353V17.0095V16.9836V16.9578V16.9319V16.906V16.8802V16.8543V16.8284V16.8026V16.7767V16.7508V16.725V16.6991V16.6732V16.6474V16.6215V16.5957V16.5698V16.5439V16.5181V16.5075H12.0319H12.0402H12.0485H12.0568H12.0651H12.0734H12.0817H12.0901H12.0984H12.1067H12.115H12.1233H12.1316H12.1399H12.1482H12.1565H12.1648H12.1732H12.1815H12.1898H12.1981H12.2064H12.2147H12.223H12.2313H12.2396H12.248H12.2563H12.2646H12.2729H12.2812H12.2895H12.2978H12.3061H12.3144H12.3227H12.3311H12.3394H12.3477H12.356H12.3643H12.3726H12.3809H12.3892H12.3975H12.4058H12.4142H12.4225H12.4308H12.4391H12.4474H12.4557H12.464H12.4723H12.4806H12.4889H12.4973H12.5056H12.5139H12.5222H12.5305H12.5388H12.5471H12.5554H12.5637H12.572H12.5804H12.5887H12.597H12.6053H12.6136H12.6219H12.6302H12.6385H12.6468H12.6551H12.6635H12.6718H12.6801H12.6884H12.6967H12.705H12.7133H12.7216H12.7299H12.7382H12.7466H12.7549H12.7632H12.7715H12.7798H12.7881H12.7964H12.8047H12.813H12.8214H12.8297H12.838H12.8463H12.8546H12.8629H12.8712H12.8795H12.8878H12.8962H12.9045H12.9128H12.9211H12.9294H12.9377H12.946H12.9543H12.9626H12.971H12.9793H12.9876H12.9959H13.0042H13.0125H13.0208H13.0291H13.0374H13.0458H13.0541H13.0624H13.0707H13.079H13.0873H13.0956H13.1039H13.1123H13.1206H13.1289H13.1372H13.1455H13.1538H13.1621H13.1704H13.1788H13.1871H13.1954H13.2037H13.212H13.2203H13.2286H13.2369H13.2453H13.2536H13.2619H13.2702H13.2785H13.2868H13.2951H13.3034H13.3118H13.3201H13.3284H13.3367H13.345H13.3533H13.3616H13.37H13.3783H13.3866H13.3949H13.4032H13.4115H13.4198H13.4282H13.4365H13.4448H13.4531H13.4614H13.4697H13.4781H13.4864H13.4947H13.503H13.5113H13.5196H13.5279H13.5363H13.5446H13.5529H13.5612H13.5695H13.5778H13.5862H13.5945H13.6028H13.6111H13.6194H13.6277H13.6361H13.6444H13.6527H13.661H13.6693H13.6776H13.686H13.6943H13.7026H13.7109H13.7192H13.7276H13.7359H13.7442H13.7525H13.7608H13.7691H13.7775H13.7858H13.7941H13.8024H13.8107H13.8191H13.8274H13.8357H13.844H13.8523H13.8607H13.869H13.8773H13.8856H13.8939H13.9023H13.9106H13.9189H13.9272H13.9355H13.9439H13.9522H13.9605H13.9688H13.9771H13.9855H13.9938H14.0021H14.0104H14.0188H14.0271H14.0354H14.0437H14.052H14.0604H14.0687H14.077H14.0853H14.0937H14.102H14.1103H14.1186H14.127H14.1353H14.1436H14.1519H14.1603H14.1686H14.1769H14.1852H14.1936H14.2019H14.2102H14.2185H14.2269H14.2352H14.2435H14.2518H14.2602H14.2685H14.2768H14.2851H14.2935H14.3018H14.3101H14.3185H14.3268H14.3351H14.3434H14.3518H14.3601H14.3684H14.3767H14.3851H14.3934H14.4017H14.4101H14.4184H14.4267H14.4351H14.4434H14.4517H14.46H14.4684H14.4767H14.485H14.4934H14.5017H14.51H14.5184H14.5267H14.535H14.5434H14.5517H14.56H14.5683H14.5767H14.585H14.5933H14.6017H14.61H14.6183H14.6267H14.635H14.6433H14.6517H14.66H14.6683H14.6767H14.685H14.6934H14.7017H14.71H14.7184H14.7267H14.735H14.7434H14.7517H14.76H14.7684H14.7767H14.7851H14.7934H14.8017H14.8101H14.8184H14.8267H14.8351H14.8434H14.8518H14.8601H14.8684H14.8768H14.8851H14.8935H14.9018H14.9101H14.9185H14.9268H14.9352H14.9435H14.9518H14.9602H14.9685H14.9769H14.9852H14.9935H15.0019H15.0102H15.0186H15.0269H15.0353H15.0436H15.0519H15.0603H15.0686H15.077H15.0853H15.0937H15.102H15.1104H15.1187H15.127H15.1354H15.1437H15.1521H15.1604H15.1688H15.1771H15.1855H15.1938H15.2022H15.2105H15.2189H15.2272H15.2356H15.2439H15.2523H15.2606H15.269H15.2773H15.2857H15.294H15.3024H15.3107H15.3191H15.3274H15.3358H15.3441H15.3525H15.3608H15.3692H15.3775H15.3859H15.3942H15.4026H15.4109H15.4193H15.4276H15.436H15.4443H15.4527H15.4611H15.4694H15.4778H15.4861H15.4945H15.5028H15.5112H15.5195H15.5279H15.5363H15.5446H15.553H15.5613H15.5697H15.578H15.5864H15.5948H15.6031H15.6115H15.6198H15.6282H15.6366H15.6449H15.6533H15.6616H15.67H15.6784H15.6867H15.6951H15.7035H15.7118H15.7202H15.7285H15.7369H15.7453H15.7536H15.762H15.7704H15.7787H15.7871H15.7955H15.8038H15.8122H15.8206H15.8289H15.8373H15.8457H15.854H15.8624H15.8708H15.8791H15.8875H15.8959H15.9042H15.9126H15.921H15.9293H15.9377H15.9461H15.9545H15.9628H15.9712H15.9796H15.9879H15.9963H16.0047H16.0131H16.0214H16.0298H16.0382H16.0466H16.0549H16.0633H16.0717H16.0801H16.0884H16.0968H16.1052H16.1136H16.1219H16.1303H16.1387H16.1471H16.1554H16.1638H16.1722H16.1806H16.189H16.1973H16.2057H16.2141H16.2225H16.2309H16.2392H16.2476H16.256H16.2644H16.2658V16.518V16.5438V16.5696V16.5954V16.6212V16.647V16.6728V16.6986V16.7244V16.7503V16.7761V16.8019V16.8277V16.8535V16.8793V16.9051V16.9309V16.9567V16.9825V17.0083V17.0341V17.0599V17.0857V17.1115V17.1374V17.1632V17.189V17.2148V17.2406V17.2664V17.2922V17.318V17.3438V17.3696V17.3954V17.4212V17.447V17.4728V17.4987V17.5245V17.5503V17.5761V17.6019V17.6277V17.6535V17.6793V17.7051V17.7309V17.7567V17.7825V17.8083V17.8342V17.86V17.8858V17.9116V17.9374V17.9632V17.989V18.0148V18.0406V18.0664V18.0922V18.1181V18.1439V18.1697V18.1955V18.2213V18.2471V18.2729V18.2987V18.3245V18.3503V18.3761V18.402V18.4278V18.4536V18.4794V18.5052V18.531V18.5568V18.5826V18.6084V18.6342V18.6601V18.6859V18.7117V18.7375V18.7633V18.7891V18.8149V18.8407V18.8665V18.8924V18.9182V18.944V18.9698V18.9956V19.0214V19.0472V19.073V19.0988V19.1247V19.1505V19.1763V19.2021V19.2279V19.2537V19.2795V19.3053V19.3312V19.357V19.3828V19.4086V19.4344V19.4602V19.486V19.5118V19.5377V19.5635V19.5893V19.6151V19.6409V19.6667V19.6925V19.7184V19.7442V19.77V19.7958V19.8216V19.8474V19.8732V19.8991V19.9249V19.9507V19.9765V20.0023V20.0281V20.0539V20.0798V20.1056V20.1314V20.1572V20.183V20.2088V20.2346V20.2605V20.2863V20.3121V20.3379V20.3637V20.3895V20.4154V20.4412V20.467V20.4928V20.5186V20.5444V20.5703V20.5961V20.6219V20.6477V20.6735V20.6994V20.7252V20.751V20.7768V20.8026V20.8284V20.8543V20.8801V20.9059V20.9317V20.9575V20.9834V21.0092V21.035V21.0608V21.0866V21.1125V21.1383V21.1641V21.1899V21.2157V21.2416V21.2674V21.2932V21.319V21.3448V21.3707V21.3965V21.4223V21.4481V21.4739V21.4998V21.5256V21.5514V21.5772V21.6031V21.6289V21.6547V21.6805V21.7063V21.7322V21.758V21.7838V21.8096V21.8355V21.8613V21.8871V21.9129V21.9388V21.9646V21.9904V22.0162V22.0421V22.0679V22.0937V22.1195V22.1454V22.1712V22.197V22.2228V22.2487V22.2745V22.3003V22.3261V22.352V22.3778V22.4036V22.4294V22.4553V22.4811V22.5069V22.5327V22.5586V22.5844V22.6102V22.6361V22.6619V22.6877V22.7135V22.7394V22.7652V22.791V22.8169V22.8427V22.8685V22.8943V22.9202V22.946V22.9718V22.9977V23.0235V23.0493V23.0752V23.101V23.1268V23.1527V23.1785V23.2043V23.2301V23.256V23.2818V23.3076V23.3335V23.3593V23.3851V23.411V23.4368V23.4626V23.4885V23.5143V23.5401V23.566V23.5918V23.6176V23.6435V23.6693V23.6951V23.721V23.7468V23.7727V23.7985V23.8243V23.8502V23.876V23.9018V23.9277V23.9535V23.9793V24.0052V24.031V24.0569V24.0827V24.1085V24.1344V24.1602V24.186V24.2119V24.2377V24.2636V24.2894V24.3152V24.3411V24.3669V24.3928V24.4186V24.4444V24.4703V24.4961V24.522V24.5478V24.5736V24.5995V24.6253V24.6512V24.677V24.7029V24.7287V24.7545V24.7804V24.8062V24.8321V24.8579V24.8838V24.9096V24.9354V24.9613V24.9871V25.013V25.0388V25.0647V25.0905V25.1164V25.1422V25.168V25.1939V25.2197V25.2456V25.2714V25.2973V25.3231V25.349V25.3748V25.4007V25.4265V25.4524V25.4782V25.5041V25.5299V25.5558V25.5816V25.6075V25.6333V25.6592V25.685V25.7109V25.7367V25.7626V25.7884V25.8143V25.8401V25.866V25.8918V25.9177V25.9435V25.9694V25.9952V26.0211V26.0469V26.0728V26.0986V26.1245V26.1504V26.1762V26.2021V26.2279V26.2538V26.2796V26.3055V26.3313V26.3572V26.3831V26.4089V26.4348V26.4606V26.4865V26.5123V26.5382V26.5641V26.5899V26.6158V26.6416V26.6675V26.6934V26.7192V26.7451V26.7709V26.7968V26.8227V26.8485V26.8744V26.9002V26.9261V26.952V26.9778V27.0037V27.0295V27.0554V27.0813V27.1071V27.133V27.1589V27.1847V27.2106V27.2365V27.2623V27.2882V27.314V27.3399V27.3658V27.3916V27.4175V27.4434V27.4692V27.4951V27.521V27.5468V27.5727V27.5986V27.6245V27.6503V27.6762V27.7021V27.7279V27.7538V27.7797V27.8055V27.8314V27.8573V27.8832V27.909V27.9349V27.9608V27.9866V28.0125V28.0384V28.0643V28.0901V28.116V28.1419V28.1677V28.1936V28.2195V28.2454V28.2712V28.2971V28.323V28.3489V28.3747V28.4006V28.4265V28.4524V28.4783V28.5041V28.53V28.5559V28.5818V28.6076V28.6335V28.6594V28.6853V28.7112V28.737V28.7629V28.7888V28.8147V28.8406V28.8664V28.8923V28.9182V28.9441V28.97V28.9959V29.0217V29.0476V29.0735V29.0994V29.1253V29.1512V29.177V29.2029V29.2288V29.2547V29.2806V29.3065V29.3324V29.3583V29.3841V29.41V29.4359V29.4618V29.4877V29.5136V29.5395V29.5654V29.5912V29.6171V29.643V29.6689V29.6948V29.7054Z"
            />
            <path d="M14.3309 9.92937C14.9987 9.92846 15.5681 10.1636 15.971 10.5655C16.3739 10.9673 16.6113 11.5367 16.6136 12.206C16.6157 12.8679 16.3771 13.4323 15.9684 13.8314C15.5598 14.2304 14.9803 14.4649 14.2993 14.4652C12.9714 14.4661 12.0254 13.5247 12.023 12.2007C12.0206 10.8761 12.9801 9.93118 14.3309 9.92937Z"
            />
        </symbol>

        <!-- instagram-icon -->
        <symbol id="instagram-icon" viewBox="0 0 40 40" xmlns="http://www.w3.org/2000/svg">
            <path d="M11.6154 0.50961H12.1154V0.5H28.3942C34.5119 0.5 39.5 5.49538 39.5 11.612V28.386C39.5 34.5029 34.5117 39.498 28.4038 39.498H11.6154C5.49635 39.498 0.5 34.5109 0.5 28.4052V11.6216C0.5 5.50553 5.49716 0.50961 11.6154 0.50961ZM2.57692 11.6302V11.6312V28.4149C2.57692 33.4117 6.59973 37.4316 11.6154 37.4316H28.4038C33.4017 37.4316 37.4231 33.4102 37.4231 28.3956V11.6216C37.4231 6.60671 33.4014 2.58565 28.3942 2.58565H11.6154C6.60769 2.58565 2.5871 6.60704 2.57692 11.6302ZM31.2788 7.6997C31.2788 7.12046 31.7375 6.66168 32.3173 6.66168C32.8971 6.66168 33.3558 7.12045 33.3558 7.6997C33.3558 8.27894 32.8971 8.73772 32.3173 8.73772C31.7375 8.73772 31.2788 8.27894 31.2788 7.6997ZM9.74039 20.0038C9.74039 14.3587 14.3625 9.73772 20.0096 9.73772C25.6567 9.73772 30.2788 14.3587 30.2788 20.0038C30.2788 25.6489 25.6567 30.2699 20.0096 30.2699C14.3625 30.2699 9.74039 25.6489 9.74039 20.0038ZM28.2019 20.0038C28.2019 15.4596 24.5549 11.8137 20.0096 11.8137C15.4644 11.8137 11.8173 15.4596 11.8173 20.0038C11.8173 24.5481 15.4644 28.1939 20.0096 28.1939C24.5549 28.1939 28.2019 24.5481 28.2019 20.0038Z"
            />
        </symbol>

        <!-- behance-icon -->
        <symbol id="behance-icon" viewBox="0 0 42 42" xmlns="http://www.w3.org/2000/svg">
            <path d="M35.1406 1H6.85938C3.62848 1 1 3.62848 1 6.85938V35.1406C1 38.3715 3.62848 41 6.85938 41H35.1406C38.3715 41 41 38.3715 41 35.1406V6.85938C41 3.62848 38.3715 1 35.1406 1ZM38.6562 35.1406C38.6562 37.0791 37.0791 38.6562 35.1406 38.6562H6.85938C4.9209 38.6562 3.34375 37.0791 3.34375 35.1406V6.85938C3.34375 4.9209 4.9209 3.34375 6.85938 3.34375H35.1406C37.0791 3.34375 38.6562 4.9209 38.6562 6.85938V35.1406Z"
            />
            <path d="M19.8281 17.4844C19.8281 14.8995 17.7255 12.7969 15.1406 12.7969H8.10938V29.2031H15.1406C17.7255 29.2031 19.8281 27.1005 19.8281 24.5156C19.8281 23.1167 19.2114 21.8597 18.236 21C19.2114 20.1403 19.8281 18.8833 19.8281 17.4844ZM17.4844 24.5156C17.4844 25.808 16.433 26.8594 15.1406 26.8594H10.4531V22.1719H15.1406C16.433 22.1719 17.4844 23.2232 17.4844 24.5156ZM10.4531 19.8281V15.1406H15.1406C16.433 15.1406 17.4844 16.192 17.4844 17.4844C17.4844 18.7768 16.433 19.8281 15.1406 19.8281H10.4531Z"
            />
            <path d="M28.0313 17.4844C24.8004 17.4844 22.1719 20.1129 22.1719 23.3438C22.1719 26.5746 24.8004 29.2031 28.0313 29.2031C30.1165 29.2031 32.0611 28.081 33.106 26.2744L31.0772 25.1006C30.4498 26.1855 29.2825 26.8594 28.0313 26.8594C26.5032 26.8594 25.2001 25.8798 24.7164 24.5156H33.8906V23.3438C33.8906 20.1129 31.2621 17.4844 28.0313 17.4844ZM24.7164 22.1719C25.2001 20.8077 26.5032 19.8281 28.0313 19.8281C29.5593 19.8281 30.8624 20.8077 31.3461 22.1719H24.7164Z"
            />
            <path d="M23.3438 12.7969H32.7188V15.1406H23.3438V12.7969Z" />
        </symbol>

        <!-- dribble-icon -->
        <symbol id="dribble-icon" viewBox="0 0 40 40" xmlns="http://www.w3.org/2000/svg">
            <path d="M30.9743 7.12298L31.2912 6.73364L30.9006 6.41831C27.9205 4.01253 24.1373 2.57677 20 2.57677C18.5506 2.57677 17.1451 2.7753 15.814 3.10067L15.073 3.28177L15.5347 3.88897C16.957 5.75989 19.0002 8.5854 21.4471 13.0106L21.6537 13.3844L22.0552 13.2386C26.6822 11.5588 29.4556 8.98909 30.9743 7.12298ZM13.2795 4.35659L13.0359 4.04284L12.6752 4.20919C8.08123 6.32787 4.59636 10.3769 3.22019 15.3269L3.04947 15.941L3.68655 15.9606C6.21743 16.0384 12.2683 15.9218 18.9728 14.1657L19.602 14.0009L19.281 13.4352C16.6795 8.8514 14.4917 5.91782 13.2795 4.35659ZM33.177 8.61566L32.7929 8.16954L32.4148 8.62072C30.721 10.642 27.7789 13.2689 23.1194 15.0515L22.6031 15.249L22.8513 15.7429C23.8551 17.741 24.8289 19.8701 25.7162 22.1693L25.8604 22.543L26.2565 22.4838C29.6266 21.9807 32.7419 21.9807 35.0951 22.1608C35.6679 22.2073 36.0376 22.2595 36.4673 22.3202C36.5577 22.3329 36.6508 22.3461 36.749 22.3596L37.2584 22.4299L37.3143 21.9187C37.3834 21.2877 37.4231 20.6541 37.4231 19.999C37.4231 15.6422 35.8085 11.6724 33.177 8.61566ZM20.7531 16.2431L20.5675 15.8793L20.1739 15.9886C12.2818 18.1807 5.32954 18.1138 3.16395 18.0283L2.68337 18.0094L2.64576 18.4889L2.64311 18.5226C2.60572 18.999 2.56731 19.4885 2.56731 20.0086C2.56731 25.2465 4.88522 29.9194 8.53607 33.115L8.90423 33.4373L9.23439 33.0762C10.15 32.0748 11.378 30.7994 12.8712 29.4679L12.8732 29.4661C15.6819 26.9346 19.2978 24.254 23.2385 23.084L23.7636 22.9281L23.5605 22.4193C22.6792 20.2114 21.7304 18.159 20.7531 16.2431ZM30.4721 24.1433L30.4668 24.1436C29.4333 24.1923 28.333 24.2897 27.2142 24.4357L26.6133 24.5141L26.8043 25.0891C27.749 27.9326 28.5304 30.9447 29.0352 34.0779L29.1603 34.8541L29.8102 34.4116C33.0667 32.1946 35.5323 28.8981 36.6813 25.0256L36.8514 24.4521L36.2568 24.3864C34.764 24.2216 32.8717 24.0556 30.4721 24.1433ZM24.6744 25.3254L24.5196 24.8789L24.0651 25.0082C20.6108 25.9909 16.9951 28.5401 14.2535 31.0005C12.9289 32.179 11.8591 33.2977 11.0005 34.2142L10.5736 34.6698L11.1115 34.9868C13.713 36.5199 16.7328 37.4213 19.9904 37.4213C22.4353 37.4213 24.7417 36.9163 26.8484 36.0261L27.2018 35.8769L27.1491 35.4969C26.6537 31.9223 25.7798 28.5156 24.6744 25.3254ZM0.5 19.999C0.5 9.2565 9.25689 0.5 20 0.5C30.7431 0.5 39.5 9.2565 39.5 19.999C39.5 30.7416 30.7431 39.498 20 39.498C9.25689 39.498 0.5 30.7416 0.5 19.999Z"
            />
        </symbol>
    </defs>
</svg>
