<svg xmlns="http://www.w3.org/2000/svg">
  <!-- logo -->
  <symbol id="logo" viewBox="0 0 1297 238">
    <path  d="M 782.455 39.455 L 780 41.909 780 119.907 C 780 174.941, 780.327 198.623, 781.110 200.343 C 783.356 205.271, 790.248 206.410, 794.694 202.588 L 797.500 200.176 798 162.338 L 798.500 124.500 801.195 119.916 C 804.752 113.866, 810.958 108.376, 817.880 105.157 C 822.563 102.979, 824.917 102.546, 832 102.557 C 841.168 102.572, 844.965 103.877, 850.342 108.864 C 858.093 116.055, 859 121.826, 859 163.967 C 859 183.145, 859.280 199.565, 859.621 200.455 C 859.963 201.346, 861.592 202.772, 863.243 203.625 C 867.664 205.912, 872.596 204.692, 875.091 200.696 C 877.011 197.620, 877.072 196.076, 876.717 159.500 C 876.382 124.905, 876.166 120.856, 874.304 114.310 C 870.716 101.689, 864.072 93.238, 854.122 88.637 C 850.213 86.830, 847.649 86.500, 837.500 86.500 C 825.682 86.500, 825.385 86.556, 817.895 90.218 C 812.249 92.978, 808.705 95.629, 804.145 100.505 L 798 107.073 798 75.487 C 798 37.602, 797.849 37, 788.373 37 C 786.029 37, 784.116 37.793, 782.455 39.455 M 1274.455 39.455 L 1272 41.909 1272 73.170 L 1272 104.432 1266.750 99.328 C 1256.123 88.999, 1246.345 85, 1231.713 85 C 1216.002 85, 1205.418 89.457, 1194.278 100.763 C 1183.127 112.080, 1178.041 126.099, 1178.015 145.590 C 1177.989 164.991, 1182.945 178.604, 1194.490 190.842 C 1204.759 201.728, 1216.869 207, 1231.605 207 C 1245.057 207, 1259.067 200.575, 1267.778 190.411 L 1271.987 185.500 1271.994 191.703 C 1272.001 198.980, 1273.294 202.357, 1276.657 203.890 C 1281.704 206.189, 1286.031 204.774, 1288.490 200.020 C 1289.798 197.489, 1290 186.825, 1290 120.126 L 1290 43.153 1287.411 40.077 C 1284.004 36.028, 1278.161 35.748, 1274.455 39.455 M 311.635 48.073 L 309 50.145 309 124.962 C 309 209.380, 308.439 203.579, 316.712 204.688 C 320.425 205.186, 321.251 204.903, 323.952 202.202 L 327 199.154 327 165.577 L 327 132 358.865 132 C 389.588 132, 390.825 131.926, 393.365 129.927 C 396.976 127.087, 397.064 120.973, 393.545 117.455 L 391.091 115 359.045 115 L 327 115 327 89 L 327 63 364.077 63 L 401.154 63 404.194 59.960 C 406.736 57.418, 407.133 56.394, 406.618 53.710 C 406.279 51.944, 404.852 49.487, 403.445 48.250 L 400.888 46 357.579 46 C 315.278 46, 314.208 46.048, 311.635 48.073 M 476.500 86.802 C 466.849 90.155, 458.629 97.445, 452.595 108.001 L 450.024 112.500 450.012 102.885 C 450.002 94.683, 449.695 92.882, 447.927 90.635 C 446.246 88.497, 445.019 88, 441.427 88 C 436.198 88, 433.410 90.250, 432.510 95.194 C 432.180 97.012, 432.042 121.377, 432.205 149.337 L 432.500 200.174 435.306 202.587 C 438.891 205.670, 443.108 205.671, 446.694 202.588 L 449.500 200.177 450 165.260 L 450.500 130.343 454.748 121.774 C 459.745 111.693, 467.191 104.145, 474.643 101.606 C 480.450 99.627, 483.136 99.608, 489.371 101.499 C 495.186 103.263, 498.340 102.655, 501.016 99.253 C 504.537 94.776, 503.468 90.269, 498.027 86.646 C 494.690 84.424, 483.104 84.508, 476.500 86.802 M 551.438 87.035 C 535.882 91.968, 522.727 104.859, 516.577 121.199 C 507.185 146.151, 513.530 176.937, 531.263 192.449 C 548.603 207.618, 577.184 211.569, 596.929 201.528 C 607.549 196.127, 617 187.070, 617 182.294 C 617 179.171, 612.760 175, 609.584 175 C 608.104 175, 604.848 176.817, 601.631 179.436 C 586.903 191.433, 569.674 194.033, 553.621 186.684 C 540.759 180.796, 530 165.142, 530 152.318 L 530 149 572.050 149 C 617.994 149, 618.797 148.906, 620.747 143.280 C 621.811 140.213, 620.766 128.895, 618.880 123.065 C 613.107 105.216, 599.561 91.801, 582.068 86.612 C 574.417 84.341, 559.272 84.550, 551.438 87.035 M 683 86.886 C 653.311 96.484, 637.506 127.301, 644.581 161.792 C 647.058 173.867, 651.114 181.339, 659.895 190.007 C 671.898 201.856, 684.680 206.944, 702.540 206.983 C 717.025 207.014, 730.295 201.935, 740.987 192.268 C 748.990 185.033, 749.704 180.473, 743.472 176.390 C 740.138 174.205, 737.105 175.148, 731.305 180.173 C 714.471 194.754, 688.250 194.155, 672.934 178.839 C 666.140 172.045, 662.109 163.761, 660.482 153.250 L 659.824 149 702.835 149 L 745.847 149 748.923 146.411 C 751.632 144.132, 751.998 143.205, 751.985 138.661 C 751.950 126.202, 746.251 111.933, 737.408 102.161 C 726.769 90.405, 714.285 84.964, 698.154 85.054 C 691.762 85.089, 686.642 85.708, 683 86.886 M 942 87.285 C 929.428 91.604, 919.195 100.354, 912.531 112.484 C 908.134 120.489, 906.235 126.761, 905.109 137 C 900.895 175.318, 924.836 207.040, 957.932 206.988 C 971.750 206.966, 984.088 201.829, 993.030 192.375 C 995.826 189.419, 998.313 187, 998.557 187 C 998.800 187, 999 189.825, 999 193.277 C 999 197.241, 999.553 200.345, 1000.501 201.698 C 1002.457 204.491, 1007.321 205.524, 1011.113 203.953 C 1017.049 201.494, 1017 201.979, 1017 146.199 C 1017 112.636, 1016.636 94.253, 1015.930 92.230 C 1014.641 88.533, 1009.301 85.635, 1005.523 86.584 C 1001.131 87.686, 999 91.510, 999 98.287 L 999 104.304 993.250 98.860 C 986.209 92.192, 982.328 89.783, 974.282 87.085 C 965.453 84.125, 950.937 84.214, 942 87.285 M 1096.447 86.403 C 1088.579 88.867, 1079.945 94.293, 1074.458 100.219 L 1069 106.114 1069 101.122 C 1069 91.900, 1066.207 88, 1059.603 88 C 1056.449 88, 1054.786 88.599, 1053.174 90.314 L 1051 92.629 1051 145.733 C 1051 174.940, 1051.280 199.565, 1051.621 200.455 C 1051.963 201.346, 1053.592 202.772, 1055.243 203.625 C 1059.675 205.918, 1064.606 204.694, 1067.044 200.696 C 1068.880 197.684, 1068.993 195.419, 1068.996 161.446 L 1069 125.393 1071.548 120.279 C 1074.753 113.847, 1081.479 107.592, 1088.822 104.215 C 1093.659 101.990, 1095.906 101.599, 1104 101.579 C 1111.809 101.558, 1114.212 101.933, 1117.500 103.685 C 1122.830 106.526, 1126.406 110.443, 1129.196 116.500 C 1131.445 121.380, 1131.512 122.437, 1132.004 160.500 C 1132.281 181.950, 1132.868 200.227, 1133.309 201.115 C 1134.297 203.105, 1138.287 205, 1141.491 205 C 1142.810 205, 1145.151 203.914, 1146.694 202.588 L 1149.500 200.175 1149.788 163.838 C 1150.086 126.168, 1149.553 118.369, 1145.990 108.232 C 1142.049 97.018, 1134.395 89.498, 1123.934 86.562 C 1117.252 84.687, 1102.206 84.600, 1096.447 86.403 M 558.500 102.352 C 544.496 105.981, 533.436 117.378, 531.331 130.346 L 530.734 134.026 566.617 133.763 L 602.500 133.500 602.261 129.589 C 601.189 112.023, 577.668 97.384, 558.500 102.352 M 688.024 102.541 C 680.924 104.530, 675.086 107.999, 670.990 112.664 C 667.456 116.689, 662.335 126.927, 661.817 131 L 661.500 133.500 697.250 133.763 L 733 134.025 733 130.209 C 733 121.046, 722.417 108.170, 711.541 104.101 C 703.739 101.182, 694.957 100.600, 688.024 102.541 M 950.286 102.451 C 931.562 108.303, 920.843 126.401, 922.252 149.784 C 923.380 168.517, 933.581 183.635, 948.500 188.685 C 954.345 190.664, 965.721 190.920, 971.586 189.205 C 977.065 187.604, 987.799 180.567, 989.047 177.758 C 989.599 176.516, 991.169 173.964, 992.536 172.087 C 995.732 167.697, 998.848 157.568, 999.597 149.132 C 1000.611 137.721, 996.464 123.729, 989.268 114.287 C 981.399 103.962, 963.166 98.425, 950.286 102.451 M 1225.383 101.949 C 1211.132 105.351, 1199.053 118.903, 1196.021 134.891 C 1191.730 157.515, 1201.073 178.841, 1219 187.343 C 1224.676 190.035, 1226.577 190.426, 1234 190.426 C 1241.428 190.426, 1243.319 190.037, 1249 187.338 C 1257.329 183.381, 1263.419 177.263, 1267.553 168.699 C 1277.983 147.094, 1272.126 119.243, 1254.723 107.692 C 1245.964 101.878, 1234.817 99.697, 1225.383 101.949" fill="var(--logo-text-color)" fill-rule="var(--even-odd)"/>
    <path d="M 50 17.599 C 39.249 19.911, 29.471 25.364, 21.500 33.495 C -0.744 56.185, -0.727 91.154, 21.540 113.585 L 28.580 120.676 24.292 124.406 C 18.292 129.625, 11.491 139.508, 8.314 147.623 C 5.918 153.740, 5.614 155.881, 5.560 167 C 5.509 177.714, 5.833 180.398, 7.827 185.784 C 13.989 202.421, 25.278 214.306, 40.926 220.626 C 51.554 224.919, 67.145 225.536, 78.686 222.119 C 86.273 219.873, 95.983 213.677, 102.510 206.917 L 109.201 199.986 111.299 202.743 C 117.626 211.055, 127.515 218.006, 138.234 221.674 C 151.360 226.166, 169.757 224.823, 182.042 218.477 C 195.240 211.658, 206.971 197.131, 211.092 182.500 C 213.366 174.424, 212.838 156.913, 210.080 149 C 207.235 140.836, 200.320 130.342, 194.165 124.848 L 189.439 120.630 196.159 113.910 C 203.179 106.890, 208.419 97.973, 211.090 88.500 C 213.410 80.273, 212.916 63.862, 210.096 55.500 C 201.493 29.983, 175.848 13.458, 150 16.775 C 135.541 18.631, 125.399 23.779, 114.574 34.757 L 108.662 40.752 106.095 37.626 C 97.300 26.917, 84.488 19.495, 70.566 17.044 C 63.024 15.717, 58.138 15.849, 50 17.599 M 52 35.428 C 42.439 38.081, 34.456 43.811, 29.608 51.500 C 24.617 59.415, 23.796 61.947, 23.250 71.127 C 22.610 81.876, 24.579 88.850, 30.539 96.946 C 35.492 103.674, 41.808 108.108, 50.617 111.039 C 55.551 112.681, 57.383 113.840, 58.520 116.038 C 61.668 122.125, 58.945 127.374, 51.510 129.551 C 40.039 132.910, 32.227 139.566, 26.334 151 C 23.727 156.059, 23.500 157.381, 23.500 167.500 C 23.500 177.932, 23.665 178.816, 26.699 184.620 C 39.094 208.335, 68.396 213.936, 87.975 196.332 C 94.017 190.900, 96.607 186.809, 99.468 178.175 C 101.370 172.435, 102.187 171.246, 105.303 169.685 C 108.695 167.986, 109.145 167.975, 112.371 169.506 C 114.330 170.435, 116.240 172.296, 116.800 173.820 C 117.341 175.294, 118.539 178.624, 119.463 181.220 C 122.979 191.101, 132.021 200.250, 142.197 204.221 C 149.099 206.915, 161.435 207.111, 168.500 204.639 C 192.857 196.117, 202.689 166.942, 188.438 145.473 C 183.197 137.576, 176.862 133.023, 166.330 129.582 C 158.911 127.158, 156.396 122.615, 159.139 116.595 C 160.237 114.185, 163.771 112.003, 169 110.507 C 177.341 108.122, 186.513 99.889, 191.221 90.562 C 196.592 79.923, 196.060 63.725, 190.014 53.783 C 181.763 40.215, 165.242 32.182, 150.709 34.671 C 134.767 37.402, 124.388 46.346, 118.588 62.352 C 115.732 70.231, 113.992 71.924, 108.702 71.968 C 104.472 72.004, 100 68.292, 100 64.747 C 100 60.476, 93.961 50.165, 88.577 45.244 C 77.877 35.465, 64.653 31.916, 52 35.428" fill="var(--logo-image-color)" fill-rule="var(--even-odd)"/>
  </symbol>

  <!-- instagram-icon -->
  <symbol id="instagram-icon" viewBox="0 0 21 20">
    <path d="M10.0078 4.87388C7.16852 4.87388 4.87834 7.16406 4.87834 10.0033C4.87834 12.8426 7.16852 15.1328 10.0078 15.1328C12.8471 15.1328 15.1373 12.8426 15.1373 10.0033C15.1373 7.16406 12.8471 4.87388 10.0078 4.87388ZM10.0078 13.3382C8.17298 13.3382 6.67298 11.8426 6.67298 10.0033C6.67298 8.16406 8.16851 6.66853 10.0078 6.66853C11.8471 6.66853 13.3426 8.16406 13.3426 10.0033C13.3426 11.8426 11.8426 13.3382 10.0078 13.3382ZM16.5435 4.66406C16.5435 5.32924 16.0078 5.86049 15.3471 5.86049C14.6819 5.86049 14.1506 5.32478 14.1506 4.66406C14.1506 4.00335 14.6864 3.46763 15.3471 3.46763C16.0078 3.46763 16.5435 4.00335 16.5435 4.66406ZM19.9408 5.87835C19.8649 4.27567 19.4989 2.85603 18.3247 1.68638C17.1551 0.516741 15.7355 0.15067 14.1328 0.0703125C12.481 -0.0234375 7.53012 -0.0234375 5.87834 0.0703125C4.28013 0.146205 2.86049 0.512277 1.68638 1.68192C0.512276 2.85156 0.150669 4.27121 0.0703124 5.87388C-0.0234375 7.52567 -0.0234375 12.4766 0.0703124 14.1283C0.146205 15.731 0.512276 17.1507 1.68638 18.3203C2.86049 19.49 4.27566 19.856 5.87834 19.9364C7.53012 20.0301 12.481 20.0301 14.1328 19.9364C15.7355 19.8605 17.1551 19.4944 18.3247 18.3203C19.4944 17.1507 19.8605 15.731 19.9408 14.1283C20.0346 12.4766 20.0346 7.53013 19.9408 5.87835ZM17.8069 15.9007C17.4587 16.7757 16.7846 17.4498 15.9051 17.8025C14.5881 18.3248 11.4632 18.2042 10.0078 18.2042C8.55244 18.2042 5.42298 18.3203 4.11048 17.8025C3.23549 17.4542 2.56138 16.7801 2.2087 15.9007C1.68638 14.5837 1.80692 11.4587 1.80692 10.0033C1.80692 8.54799 1.69085 5.41853 2.2087 4.10603C2.55692 3.23103 3.23102 2.55692 4.11048 2.20424C5.42745 1.68192 8.55244 1.80246 10.0078 1.80246C11.4632 1.80246 14.5926 1.68638 15.9051 2.20424C16.7801 2.55246 17.4542 3.22656 17.8069 4.10603C18.3292 5.42299 18.2087 8.54799 18.2087 10.0033C18.2087 11.4587 18.3292 14.5882 17.8069 15.9007Z"/>
  </symbol>

  <!-- facebook-icon -->
  <symbol id="facebook-icon" viewBox="0 0 10 19">
    <path d="M9.34469 10.5025L9.86325 7.12348H6.62096V4.93071C6.62096 4.00627 7.07388 3.10517 8.526 3.10517H10V0.228284C10 0.228284 8.66239 0 7.38349 0C4.71337 0 2.96806 1.61841 2.96806 4.54817V7.12348H0V10.5025H2.96806V18.6711H6.62096V10.5025H9.34469Z"/>
  </symbol>

  <!-- github-icon -->
  <symbol id="github-icon" viewBox="0 0 20 20">
    <path d="M6.68952 15.7016C6.68952 15.7823 6.59677 15.8468 6.47984 15.8468C6.34677 15.8589 6.25403 15.7944 6.25403 15.7016C6.25403 15.621 6.34677 15.5565 6.46371 15.5565C6.58468 15.5444 6.68952 15.6089 6.68952 15.7016ZM5.43548 15.5202C5.40726 15.6008 5.4879 15.6935 5.60887 15.7177C5.71371 15.7581 5.83468 15.7177 5.85887 15.6371C5.88306 15.5565 5.80645 15.4637 5.68548 15.4274C5.58065 15.3992 5.46371 15.4395 5.43548 15.5202ZM7.21774 15.4516C7.10081 15.4798 7.02016 15.5565 7.03226 15.6492C7.04435 15.7298 7.14919 15.7823 7.27016 15.754C7.3871 15.7258 7.46774 15.6492 7.45564 15.5685C7.44355 15.4919 7.33468 15.4395 7.21774 15.4516ZM9.87097 0C4.27823 0 0 4.24597 0 9.83871C0 14.3105 2.81452 18.1371 6.83468 19.4839C7.35081 19.5766 7.53226 19.2581 7.53226 18.996C7.53226 18.746 7.52016 17.3669 7.52016 16.5202C7.52016 16.5202 4.69758 17.125 4.10484 15.3185C4.10484 15.3185 3.64516 14.1452 2.98387 13.8427C2.98387 13.8427 2.06048 13.2097 3.04839 13.2218C3.04839 13.2218 4.05242 13.3024 4.60484 14.2621C5.4879 15.8185 6.96774 15.371 7.54435 15.1048C7.6371 14.4597 7.89919 14.0121 8.18952 13.746C5.93548 13.496 3.66129 13.1694 3.66129 9.29032C3.66129 8.18145 3.96774 7.625 4.6129 6.91532C4.50806 6.65323 4.16532 5.57258 4.71774 4.17742C5.56048 3.91532 7.5 5.26613 7.5 5.26613C8.30645 5.04032 9.17339 4.92339 10.0323 4.92339C10.8911 4.92339 11.7581 5.04032 12.5645 5.26613C12.5645 5.26613 14.504 3.91129 15.3468 4.17742C15.8992 5.57661 15.5565 6.65323 15.4516 6.91532C16.0968 7.62903 16.4919 8.18548 16.4919 9.29032C16.4919 13.1815 14.1169 13.4919 11.8629 13.746C12.2339 14.0645 12.5484 14.6694 12.5484 15.6169C12.5484 16.9758 12.5363 18.6573 12.5363 18.9879C12.5363 19.25 12.7218 19.5685 13.2339 19.4758C17.2661 18.1371 20 14.3105 20 9.83871C20 4.24597 15.4637 0 9.87097 0ZM3.91935 13.9073C3.86694 13.9476 3.87903 14.0403 3.94758 14.1169C4.0121 14.1815 4.10484 14.2097 4.15726 14.1573C4.20968 14.1169 4.19758 14.0242 4.12903 13.9476C4.06452 13.8831 3.97177 13.8548 3.91935 13.9073ZM3.48387 13.5806C3.45565 13.6331 3.49597 13.6976 3.57661 13.7379C3.64113 13.7782 3.72177 13.7661 3.75 13.7097C3.77823 13.6573 3.7379 13.5927 3.65726 13.5524C3.57661 13.5282 3.5121 13.5403 3.48387 13.5806ZM4.79032 15.0161C4.72581 15.0685 4.75 15.1895 4.84274 15.2661C4.93548 15.3589 5.05242 15.371 5.10484 15.3065C5.15726 15.254 5.13306 15.1331 5.05242 15.0565C4.96371 14.9637 4.84274 14.9516 4.79032 15.0161ZM4.33065 14.4234C4.26613 14.4637 4.26613 14.5685 4.33065 14.6613C4.39516 14.754 4.50403 14.7944 4.55645 14.754C4.62097 14.7016 4.62097 14.5968 4.55645 14.504C4.5 14.4113 4.39516 14.371 4.33065 14.4234Z"/>
  </symbol>

  <!-- dribbble-icon -->
  <symbol id="dribbble-icon" viewBox="0 0 20 20">
    <path d="M9.6875 0C4.34578 0 0 4.34578 0 9.6875C0 15.0292 4.34578 19.375 9.6875 19.375C15.0292 19.375 19.375 15.0292 19.375 9.6875C19.375 4.34578 15.0292 0 9.6875 0ZM16.0926 4.46742C17.245 5.87547 17.9429 7.66887 17.9611 9.62191C17.6883 9.56422 14.9526 9.00934 12.1993 9.35559C11.9746 8.80711 11.7626 8.32461 11.4721 7.73004C14.5315 6.48094 15.9181 4.7034 16.0926 4.46742ZM15.1727 3.51055C15.0239 3.72254 13.7783 5.39672 10.8359 6.49957C9.48 4.00832 7.97715 1.96176 7.74844 1.65551C10.3725 1.02297 13.1377 1.70512 15.1727 3.51055ZM6.16957 2.21172C6.38773 2.5109 7.86637 4.56 9.23742 6.99723C5.36684 8.02508 1.95773 8.01027 1.58766 8.00539C2.12422 5.4377 3.85461 3.30363 6.16957 2.21172ZM1.41289 9.70012C1.41289 9.61551 1.41457 9.53129 1.41711 9.44727C1.77914 9.45469 5.78898 9.50637 9.92125 8.26969C10.1581 8.73328 10.3844 9.20387 10.5921 9.67395C7.59996 10.5167 4.88141 12.9367 3.54012 15.2328C2.21852 13.7658 1.41289 11.8254 1.41289 9.70012ZM4.60848 16.228C5.47281 14.4611 7.81855 12.1802 11.1545 11.0422C12.3162 14.0611 12.7967 16.5911 12.9197 17.3171C10.2591 18.4504 7.05977 18.1395 4.60848 16.228ZM14.3108 16.5596C14.226 16.0562 13.7856 13.6339 12.7033 10.6598C15.2963 10.2448 17.5744 10.9242 17.8575 11.0136C17.4887 13.3159 16.1671 15.3043 14.3108 16.5596Z"/>
  </symbol>

    <!-- twitter-icon -->
  <symbol id="twitter-icon" viewBox="0 0 20 17">
    <path d="M17.9441 4.0482C17.9568 4.22586 17.9568 4.40355 17.9568 4.58121C17.9568 9.99996 13.8325 16.2436 6.29441 16.2436C3.97207 16.2436 1.81473 15.571 0 14.4036C0.329961 14.4416 0.647187 14.4543 0.989844 14.4543C2.90605 14.4543 4.67004 13.8071 6.07867 12.703C4.27664 12.665 2.76648 11.4848 2.24617 9.86039C2.5 9.89844 2.75379 9.92383 3.02031 9.92383C3.38832 9.92383 3.75637 9.87305 4.09898 9.78426C2.22082 9.40351 0.812148 7.75379 0.812148 5.76141V5.71066C1.35781 6.01523 1.99238 6.20559 2.66492 6.23094C1.56086 5.49488 0.837539 4.23855 0.837539 2.81723C0.837539 2.05582 1.04055 1.35785 1.3959 0.748711C3.41367 3.23602 6.44668 4.86035 9.84766 5.03805C9.78422 4.73348 9.74613 4.41625 9.74613 4.09898C9.74613 1.84008 11.5736 0 13.8451 0C15.0253 0 16.0913 0.494922 16.84 1.29441C17.7664 1.11676 18.6547 0.774102 19.4416 0.30457C19.137 1.25637 18.4898 2.05586 17.6395 2.56344C18.4644 2.47465 19.2639 2.24617 19.9999 1.92895C19.4416 2.74109 18.7436 3.46441 17.9441 4.0482Z"/>
  </symbol>
</svg>