<svg xmlns="http://www.w3.org/2000/svg">
    <defs>
        <!-- cursor-icon -->
        <symbol id="cursor-icon" viewBox="0 0 320 512">
            <path d="M0 55.2V426c0 12.2 9.9 22 22 22c6.3 0 12.4-2.7 16.6-7.5L121.2 346l58.1 116.3c7.9 15.8 27.1 22.2 42.9 14.3s22.2-27.1 14.3-42.9L179.8 320H297.9c12.2 0 22.1-9.9 22.1-22.1c0-6.3-2.7-12.3-7.4-16.5L38.6 37.9C34.3 34.1 28.9 32 23.2 32C10.4 32 0 42.4 0 55.2z"/>
        </symbol>

        <!-- heart -->
        <symbol id="heart" viewBox="0 0 512 512">
            <path d="M47.6 300.4L228.3 469.1c7.5 7 17.4 10.9 27.7 10.9s20.2-3.9 27.7-10.9L464.4 300.4c30.4-28.3 47.6-68 47.6-109.5v-5.8c0-69.9-50.5-129.5-119.4-141C347 36.5 300.6 51.4 268 84L256 96 244 84c-32.6-32.6-79-47.5-124.6-39.9C50.5 55.6 0 115.2 0 185.1v5.8c0 41.5 17.2 81.2 47.6 109.5z"/>
        </symbol>

        <!-- hourglass-half -->
        <symbol id="hourglass-half" viewBox="0 0 384 512">
            <path d="M0 24C0 10.7 10.7 0 24 0H360c13.3 0 24 10.7 24 24s-10.7 24-24 24h-8V67c0 40.3-16 79-44.5 107.5L225.9 256l81.5 81.5C336 366 352 404.7 352 445v19h8c13.3 0 24 10.7 24 24s-10.7 24-24 24H24c-13.3 0-24-10.7-24-24s10.7-24 24-24h8V445c0-40.3 16-79 44.5-107.5L158.1 256 76.5 174.5C48 146 32 107.3 32 67V48H24C10.7 48 0 37.3 0 24zM110.5 371.5c-3.9 3.9-7.5 8.1-10.7 12.5H284.2c-3.2-4.4-6.8-8.6-10.7-12.5L192 289.9l-81.5 81.5zM284.2 128C297 110.4 304 89 304 67V48H80V67c0 22.1 7 43.4 19.8 61H284.2z"/>
        </symbol>

        <!-- stumbleupon -->
        <symbol id="stumbleupon" viewBox="0 0 512 512">
            <path d="M502.9 266v69.7c0 62.1-50.3 112.4-112.4 112.4-61.8 0-112.4-49.8-112.4-111.3v-70.2l34.3 16 51.1-15.2V338c0 14.7 12 26.5 26.7 26.5S417 352.7 417 338v-72h85.9zm-224.7-58.2l34.3 16 51.1-15.2V173c0-60.5-51.1-109-112.1-109-60.8 0-112.1 48.2-112.1 108.2v162.4c0 14.9-12 26.7-26.7 26.7S86 349.5 86 334.6V266H0v69.7C0 397.7 50.3 448 112.4 448c61.6 0 112.4-49.5 112.4-110.8V176.9c0-14.7 12-26.7 26.7-26.7s26.7 12 26.7 26.7v30.9z"/>
        </symbol>
    <defs>
</svg>